<svg width="105" height="24" viewBox="0 0 105 24" fill="none" xmlns="http://www.w3.org/2000/svg">
<path d="M0 24H23.9938V0H0V24ZM15.379 1.8329C19.6199 3.22317 22.6846 7.24469 22.6961 11.9954C22.7077 16.6689 19.7048 20.6808 15.379 22.1633V1.8329ZM11.993 1.28898C12.7592 1.28898 13.5753 1.39123 14.2551 1.52661C14.2551 6.96385 8.99742 11.4386 3.57122 11.4386L1.30242 11.4352C1.67447 5.86162 6.28552 1.28898 11.993 1.28898ZM3.57314 12.5706C8.99838 12.5706 14.2542 17.0405 14.2542 22.4724C13.5753 22.6112 12.7184 22.7144 11.993 22.7144C6.2836 22.7067 1.51653 18.1201 1.30098 12.5706H3.57314ZM32.0258 14.1087V12.596H37.0185V10.6676H32.0248V7.85966H37.3368V5.93555H29.9812V14.0213C29.9812 16.0654 30.8515 17.4634 32.8947 17.7505C32.9355 17.7606 32.9758 17.7682 33.0133 17.7692H33.0502C33.2595 17.7927 33.4732 17.8081 33.6974 17.8081H37.4784V15.8864H33.7142C33.0646 15.8864 32.0258 15.5657 32.0258 14.1087ZM38.9306 17.811H40.9752V5.93267H38.9306V17.811ZM46.9775 8.95037C44.3933 8.95037 42.4591 10.7309 42.4591 13.5033V13.572C42.4591 16.2767 44.3246 18.0227 47.0288 18.0227C48.3293 18.0227 49.5444 17.6636 50.6567 16.4817L49.4244 15.2839C48.7739 15.9344 48.1407 16.2767 47.097 16.2767C45.5737 16.2767 44.5642 15.3866 44.4955 14.017H51.204C51.2381 13.6747 51.2381 13.2983 51.2381 13.2983C51.239 10.8846 49.5444 8.95037 46.9775 8.95037ZM44.5474 12.5792C44.6328 11.5346 45.6942 10.6959 46.9775 10.6959C48.1752 10.6959 49.1507 11.5519 49.1507 12.5792H44.5474ZM56.984 10.7818C57.9081 10.7818 58.5932 11.1246 59.1745 11.7232L60.441 10.405C59.4482 9.34355 58.2677 8.91581 56.984 8.91581C54.3825 8.91581 52.2947 10.85 52.2947 13.486C52.2947 16.1221 54.3825 18.0568 56.984 18.0568C58.2677 18.0568 59.4487 17.629 60.441 16.5676L59.1745 15.2493C58.5932 15.8485 57.9081 16.1907 56.984 16.1907C55.4775 16.1907 54.3311 15.0434 54.3311 13.486C54.3311 11.9287 55.4775 10.7818 56.984 10.7818ZM63.7582 14.1121H63.7558V11.0795H65.6151V9.22161H63.7582V5.93315H61.7136V14.2326L61.7194 14.2321C61.7779 16.1619 62.6545 17.4764 64.6271 17.7534C64.6679 17.7634 64.7083 17.7711 64.7457 17.7716H64.7827C64.992 17.7951 65.2056 17.811 65.4298 17.811H65.6463L65.6535 15.8893H65.4466C64.7971 15.8893 63.7582 15.5691 63.7582 14.1121ZM69.3635 10.4991V9.22209H67.3357V17.811H69.3635V13.2945C69.3635 11.8802 70.2665 10.9935 71.6803 10.9935C72.0039 10.9935 72.2938 11.0271 72.5324 11.079V9.10255C72.4469 9.08575 72.1407 9.05119 71.9194 9.05119C70.6923 9.05167 69.7725 9.61431 69.3635 10.4991ZM77.5318 8.96621C74.9246 8.96621 72.8454 10.9422 72.8454 13.5163C72.8454 16.089 74.9246 18.0664 77.5318 18.0664C80.1208 18.0664 82.2173 16.089 82.2173 13.5163C82.2168 10.9427 80.1208 8.96621 77.5318 8.96621ZM77.5318 16.209C76.0153 16.209 74.8742 15.0323 74.8742 13.5163C74.8742 11.9993 76.0153 10.8236 77.5318 10.8236C79.0316 10.8236 80.1895 11.9993 80.1895 13.5163C80.189 15.0328 79.0316 16.209 77.5318 16.209ZM83.4741 17.811H85.5197V5.93267H83.4741V17.811ZM92.894 14.2148C92.894 15.5777 92.0932 16.1581 91.0193 16.1581C89.9459 16.1581 89.1456 15.5777 89.1456 14.233V9.22209H87.0837V14.403C87.0837 16.8571 88.8725 18.0328 91.0025 18.0328C93.1494 18.0328 94.9549 16.8398 94.9549 14.3516V9.22209H92.894V14.2148ZM102.691 15.0645L101.402 13.2609L102.998 11.0852L104.366 9.22209H102.134L100.276 11.7953L98.4018 9.22209H96.1872L97.457 10.9595L99.1517 13.2777L97.3754 15.7515L95.8973 17.811H98.095L100.275 14.7774L102.457 17.811H104.655L102.691 15.0645Z" fill="white"/>
</svg>
