<svg width="54" height="37" viewBox="0 0 54 37" fill="none" xmlns="http://www.w3.org/2000/svg">
<path d="M46.6318 22.44H46.5758C46.5758 22.552 46.4731 22.6687 46.2677 22.79C46.0998 22.8927 45.9831 22.9533 45.9178 22.972C45.8618 22.9907 45.7497 23 45.5817 23H43.1878C42.9638 23 42.7398 22.9067 42.5158 22.72L42.1798 22.44C41.9558 22.2533 41.8438 22.02 41.8438 21.74V20.06C41.8438 19.78 41.9558 19.5467 42.1798 19.36L42.5158 19.08C42.7398 18.8933 42.9638 18.8 43.1878 18.8H45.6938C45.8711 18.8 45.9831 18.8093 46.0298 18.828C46.0764 18.8373 46.1371 18.8747 46.2118 18.94C46.3238 19.0333 46.3797 19.1267 46.3797 19.22H46.4357V17.554C46.4357 17.414 46.4264 17.3253 46.4077 17.288C46.3984 17.2413 46.3517 17.1853 46.2677 17.12C46.1837 17.0547 46.1184 17.0173 46.0718 17.008C46.0251 16.9893 45.9178 16.98 45.7498 16.98H43.4818C43.3138 16.98 43.1971 16.994 43.1318 17.022C43.0758 17.0407 42.9637 17.12 42.7957 17.26L41.9557 16.56L42.2918 16.28C42.4598 16.14 42.5718 16.0607 42.6278 16.042C42.6931 16.014 42.8097 16 42.9777 16H46.2677C46.4917 16 46.7158 16.0933 46.9398 16.28L47.2757 16.56C47.4997 16.7467 47.6118 16.98 47.6118 17.26V21.446C47.6118 21.586 47.6164 21.6793 47.6258 21.726C47.6444 21.7633 47.6958 21.8147 47.7798 21.88C47.8638 21.9453 47.9104 22.0013 47.9198 22.048C47.9384 22.0853 47.9478 22.174 47.9478 22.314V23H47.4578C47.2898 23 47.1731 22.9907 47.1077 22.972C47.0518 22.944 46.9678 22.8833 46.8558 22.79C46.7064 22.6687 46.6318 22.552 46.6318 22.44ZM43.0198 20.354V21.446C43.0198 21.586 43.0244 21.6793 43.0337 21.726C43.0524 21.7633 43.1038 21.8147 43.1878 21.88C43.2718 21.9453 43.3371 21.9873 43.3838 22.006C43.4304 22.0153 43.5377 22.02 43.7057 22.02H45.4137C45.5817 22.02 45.6938 22.0107 45.7498 21.992C45.8151 21.9733 45.9318 21.9127 46.0998 21.81C46.2678 21.7073 46.3657 21.6327 46.3937 21.586C46.4217 21.5393 46.4357 21.446 46.4357 21.306V20.354C46.4357 20.214 46.4264 20.1253 46.4077 20.088C46.3984 20.0413 46.3517 19.9853 46.2677 19.92C46.1837 19.8547 46.1184 19.8173 46.0718 19.808C46.0251 19.7893 45.9178 19.78 45.7498 19.78H43.7057C43.5377 19.78 43.4304 19.7893 43.3838 19.808C43.3371 19.8173 43.2718 19.8547 43.1878 19.92C43.1038 19.9853 43.0524 20.0413 43.0337 20.088C43.0244 20.1253 43.0198 20.214 43.0198 20.354Z" fill="white" stroke="white" stroke-width="0.1"/>
<path d="M32.6252 13.2031H38.1692C38.3932 13.2031 38.6172 13.2965 38.8412 13.4831L39.1773 13.7631C39.4013 13.9498 39.5133 14.1831 39.5133 14.4631V21.7431C39.5133 22.0231 39.4013 22.2565 39.1773 22.4431L38.8412 22.7231C38.6172 22.9098 38.3932 23.0031 38.1692 23.0031H32.6252C32.4013 23.0031 32.1773 22.9098 31.9533 22.7231L31.6173 22.4431C31.3933 22.2565 31.2812 22.0231 31.2812 21.7431V14.4631C31.2812 14.1831 31.3933 13.9498 31.6173 13.7631L31.9533 13.4831C32.1773 13.2965 32.4013 13.2031 32.6252 13.2031ZM38.3373 21.4491V14.7571C38.3373 14.6171 38.3279 14.5285 38.3093 14.4911C38.2999 14.4445 38.2532 14.3885 38.1692 14.3231C38.0852 14.2578 38.0199 14.2205 37.9732 14.2111C37.9266 14.1925 37.8193 14.1831 37.6513 14.1831H33.1432C32.9752 14.1831 32.8679 14.1925 32.8213 14.2111C32.7746 14.2205 32.7092 14.2578 32.6252 14.3231C32.5412 14.3885 32.4899 14.4445 32.4713 14.4911C32.4619 14.5285 32.4573 14.6171 32.4573 14.7571V21.4491C32.4573 21.5891 32.4619 21.6825 32.4713 21.7291C32.4899 21.7665 32.5412 21.8178 32.6252 21.8831C32.7092 21.9485 32.7746 21.9905 32.8213 22.0091C32.8679 22.0185 32.9752 22.0231 33.1432 22.0231H37.6513C37.8193 22.0231 37.9266 22.0185 37.9732 22.0091C38.0199 21.9905 38.0852 21.9485 38.1692 21.8831C38.2532 21.8178 38.2999 21.7665 38.3093 21.7291C38.3279 21.6825 38.3373 21.5891 38.3373 21.4491Z" fill="white" stroke="white" stroke-width="0.1"/>
<path d="M25.9392 16.0311L25.2812 15.3451L27.2552 13.2031H28.8932V23.0031H27.8012V14.3511C27.8012 14.1645 27.8153 14.0431 27.8433 13.9871L27.8012 13.9451L25.9392 16.0311Z" fill="white" stroke="white" stroke-width="0.1"/>
<path d="M21.1435 16.9831H22.3195V19.7831H23.6635V20.7631H22.3195V23.0031H21.1435V20.7631H16.1875V19.6151L20.9755 13.2031H22.2915L17.6295 19.4611C17.5362 19.6011 17.4568 19.6898 17.3915 19.7271V19.7831H21.1435V16.9831Z" fill="white" stroke="white" stroke-width="0.1"/>
<path d="M7.39844 13.2031H12.5784C12.8024 13.2031 13.0264 13.2965 13.2504 13.4831L13.5864 13.7631C13.8104 13.9498 13.9224 14.1831 13.9224 14.4631V17.7391C13.9224 18.0285 13.8058 18.2711 13.5724 18.4671L13.2224 18.7611C13.0171 18.9291 12.8024 19.0131 12.5784 19.0131H11.7944L13.2364 21.2531C13.3391 21.4118 13.4091 21.5145 13.4464 21.5611C13.4931 21.5985 13.5911 21.6591 13.7404 21.7431L13.8944 21.8271C14.0624 21.9205 14.1604 21.9951 14.1884 22.0511C14.2164 22.1071 14.2304 22.2425 14.2304 22.4571V23.0031H13.8804C13.7124 23.0031 13.5958 22.9938 13.5304 22.9751C13.4744 22.9565 13.3718 22.8958 13.2224 22.7931L12.9564 22.6111C12.7511 22.4711 12.5831 22.2891 12.4524 22.0651L10.5904 19.0831H8.57444V23.0031H7.39844V13.2031ZM8.57444 14.1831V18.1031H12.0604C12.2284 18.1031 12.3358 18.0985 12.3824 18.0891C12.4291 18.0705 12.4944 18.0285 12.5784 17.9631C12.6624 17.8978 12.7091 17.8465 12.7184 17.8091C12.7371 17.7625 12.7464 17.6691 12.7464 17.5291V14.7571C12.7464 14.6171 12.7371 14.5285 12.7184 14.4911C12.7091 14.4445 12.6624 14.3885 12.5784 14.3231C12.4944 14.2578 12.4291 14.2205 12.3824 14.2111C12.3358 14.1925 12.2284 14.1831 12.0604 14.1831H8.57444Z" fill="white" stroke="white" stroke-width="0.1"/>
<rect x="0.6" y="0.6" width="52.8" height="35.8" rx="2.4" stroke="white" stroke-width="1.2"/>
</svg>
