<svg width="23" height="41" viewBox="0 0 23 41" fill="none" xmlns="http://www.w3.org/2000/svg">
<path d="M5.19714 12.9005C4.76751 12.7837 4.35078 12.6237 3.95332 12.4231C1.73115 11.2977 0.351562 9.05313 0.351562 6.56423C0.351562 2.9451 3.29655 0 6.9158 0C10.5349 0 13.4799 2.9451 13.4799 6.56423C13.4799 8.85246 12.3172 10.94 10.3705 12.1463C10.1424 12.2877 9.90598 12.415 9.66252 12.5278L9.71371 11.0871C9.52928 11.202 9.91113 10.9962 9.71371 11.0871C11.2915 10.1086 12.2337 8.41751 12.2337 6.56423C12.2337 3.6317 9.84833 1.24633 6.9158 1.24633C3.98316 1.24633 1.59779 3.6317 1.59779 6.56423C1.59779 8.58081 2.71578 10.4004 4.51661 11.3114C4.16935 11.2176 4.83724 11.4745 4.51661 11.3114L5.19714 12.9005Z" fill="white"/>
<path d="M8.37855 6.9709V16.0725H9.62478V15.5054C9.62478 14.6181 10.3465 13.8965 11.2325 13.8965C12.1185 13.8965 12.839 14.6182 12.839 15.5054V17.3188H14.0852V16.849C14.0852 15.994 14.7807 15.2998 15.6357 15.2998C16.4893 15.2998 17.1861 15.994 17.1861 16.849V18.5652H18.4323V18.3944C18.4323 17.4858 19.129 16.7469 19.9828 16.7469C20.8378 16.7469 21.5332 17.4859 21.5332 18.3944V19.9859H21.5357V28.194C21.5357 29.3992 20.5823 31.544 19.8146 33.2676C19.0606 34.9601 18.5995 36.0319 18.5995 36.7037V39.7521H6.57521C6.5615 38.618 6.53659 38.664 6.53659 37.1187C6.53659 34.8131 5.34019 21.965 5.34019 21.965V18.4044C5.35631 18.382 5.34019 18.3708 5.34019 18.3708V6.97101C5.34019 6.05871 5.4664 4.91845 6.80446 4.91845C8.14253 4.91845 8.37855 6.10477 8.37855 6.9709ZM6.80446 3.58594C5.27403 3.58594 4.09375 4.79856 4.09375 6.4051V18.1464C4.09375 18.1464 5.29025 35.3389 5.29025 37.1187C5.29025 39.1901 5.33631 40.3828 5.33631 40.3828L5.34375 40.9984H19.8455V36.7038C19.8455 36.2638 20.4338 34.9391 20.9535 33.7738C21.8109 31.8482 22.7818 29.6647 22.7818 28.194V18.3945L22.7794 18.3933C22.7794 16.798 21.5244 15.5005 19.9827 15.5005C19.3546 15.5005 18.7801 15.7237 18.3127 16.0876C17.9787 14.9161 16.9106 14.0535 15.6357 14.0535C14.9951 14.0535 14.4118 14.278 13.9382 14.6431C13.5705 13.4915 12.5025 12.6503 11.2325 12.6503C10.7328 12.6503 10.2678 12.7835 9.86157 13.0104C9.74684 13.0752 9.63598 5.64606 9.5313 5.72457C9.2248 4.49823 8.12428 3.58594 6.80446 3.58594Z" fill="white"/>
</svg>
