<svg width="46" height="46" viewBox="0 0 46 46" fill="none" xmlns="http://www.w3.org/2000/svg">
<path d="M23 16.2917V5.75" stroke="white" stroke-width="1.38" stroke-linecap="round" stroke-linejoin="round"/>
<path d="M23 40.2526V29.7109" stroke="white" stroke-width="1.38" stroke-linecap="round" stroke-linejoin="round"/>
<path d="M19.1641 5.75H26.8307" stroke="white" stroke-width="1.38" stroke-linecap="round" stroke-linejoin="round"/>
<path d="M19.1641 40.25H26.8307" stroke="white" stroke-width="1.38" stroke-linecap="round" stroke-linejoin="round"/>
<path d="M17.1936 19.6458L8.07031 14.375" stroke="white" stroke-width="1.38" stroke-linecap="round" stroke-linejoin="round"/>
<path d="M37.9358 31.6224L28.8125 26.3516" stroke="white" stroke-width="1.38" stroke-linecap="round" stroke-linejoin="round"/>
<path d="M6.15625 17.6942L9.98958 11.0625" stroke="white" stroke-width="1.38" stroke-linecap="round" stroke-linejoin="round"/>
<path d="M36.0156 34.9442L39.849 28.3125" stroke="white" stroke-width="1.38" stroke-linecap="round" stroke-linejoin="round"/>
<path d="M29.7057 22.9974C29.7057 24.2241 29.3799 25.3549 28.8049 26.3516C27.6357 28.3641 25.4699 29.7057 22.9974 29.7057C20.5249 29.7057 18.3591 28.3641 17.1899 26.3516C16.6149 25.3549 16.2891 24.2241 16.2891 22.9974C16.2891 21.7707 16.6149 20.6399 17.1899 19.6432C18.3591 17.6307 20.5249 16.2891 22.9974 16.2891C25.4699 16.2891 27.6357 17.6307 28.8049 19.6432C29.3799 20.6399 29.7057 21.7707 29.7057 22.9974Z" stroke="white" stroke-width="1.38" stroke-linecap="round" stroke-linejoin="round"/>
<path d="M37.9358 14.375L28.8125 19.6458" stroke="white" stroke-width="1.38" stroke-linecap="round" stroke-linejoin="round"/>
<path d="M17.1936 26.3516L8.07031 31.6224" stroke="white" stroke-width="1.38" stroke-linecap="round" stroke-linejoin="round"/>
<path d="M39.849 17.6942L36.0156 11.0625" stroke="white" stroke-width="1.38" stroke-linecap="round" stroke-linejoin="round"/>
<path d="M9.98958 34.9442L6.15625 28.3125" stroke="white" stroke-width="1.38" stroke-linecap="round" stroke-linejoin="round"/>
</svg>
