<svg width="33" height="33" viewBox="0 0 33 33" fill="none" xmlns="http://www.w3.org/2000/svg">
<path d="M16.5 11.6875V4.125" stroke="#00C2FF" stroke-width="3.21081" stroke-linecap="square" stroke-linejoin="round"/>
<path d="M16.5 28.875V21.3125" stroke="#00C2FF" stroke-width="3.21081" stroke-linecap="square" stroke-linejoin="round"/>
<path d="M13.75 4.125H19.25" stroke="#00C2FF" stroke-width="3.21081" stroke-linecap="square" stroke-linejoin="round"/>
<path d="M13.75 28.875H19.25" stroke="#00C2FF" stroke-width="3.21081" stroke-linecap="square" stroke-linejoin="round"/>
<path d="M12.3341 14.0938L5.78906 10.3125" stroke="#00C2FF" stroke-width="3.21081" stroke-linecap="square" stroke-linejoin="round"/>
<path d="M27.2169 22.6875L20.6719 18.9062" stroke="#00C2FF" stroke-width="3.21081" stroke-linecap="square" stroke-linejoin="round"/>
<path d="M4.41406 12.695L7.16406 7.9375" stroke="#00C2FF" stroke-width="3.21081" stroke-linecap="square" stroke-linejoin="round"/>
<path d="M25.8359 25.07L28.5859 20.3125" stroke="#00C2FF" stroke-width="3.21081" stroke-linecap="square" stroke-linejoin="round"/>
<path d="M21.3125 16.5C21.3125 17.38 21.0787 18.1913 20.6662 18.9062C19.8275 20.35 18.2737 21.3125 16.5 21.3125C14.7263 21.3125 13.1725 20.35 12.3338 18.9062C11.9213 18.1913 11.6875 17.38 11.6875 16.5C11.6875 15.62 11.9213 14.8087 12.3338 14.0938C13.1725 12.65 14.7263 11.6875 16.5 11.6875C18.2737 11.6875 19.8275 12.65 20.6662 14.0938C21.0787 14.8087 21.3125 15.62 21.3125 16.5Z" stroke="#00C2FF" stroke-width="3.21081" stroke-linecap="round" stroke-linejoin="round"/>
<path d="M27.2169 10.3125L20.6719 14.0938" stroke="#00C2FF" stroke-width="3.21081" stroke-linecap="square" stroke-linejoin="round"/>
<path d="M12.3341 18.9062L5.78906 22.6875" stroke="#00C2FF" stroke-width="3.21081" stroke-linecap="square" stroke-linejoin="round"/>
<path d="M28.5859 12.695L25.8359 7.9375" stroke="#00C2FF" stroke-width="3.21081" stroke-linecap="square" stroke-linejoin="round"/>
<path d="M7.16406 25.07L4.41406 20.3125" stroke="#00C2FF" stroke-width="3.21081" stroke-linecap="square" stroke-linejoin="round"/>
</svg>
