<svg width="44" height="42" viewBox="0 0 44 42" fill="none" xmlns="http://www.w3.org/2000/svg">
<path fill-rule="evenodd" clip-rule="evenodd" d="M19.0871 1.86145C19.655 1.62621 20.2471 1.45859 20.8511 1.36103V9.16202L20.8511 16.963C20.2471 16.8654 19.655 16.6978 19.0871 16.4626C18.1283 16.0655 17.2572 15.4834 16.5234 14.7496C15.7897 14.0159 15.2076 13.1447 14.8105 12.186C14.4134 11.2273 14.209 10.1997 14.209 9.16202C14.209 8.1243 14.4134 7.09675 14.8105 6.13803C15.2076 5.1793 15.7897 4.30818 16.5234 3.57441C17.2572 2.84063 18.1283 2.25857 19.0871 1.86145ZM18.6049 0.697416C19.3262 0.398634 20.0812 0.193943 20.8511 0.0870457C21.2677 0.029211 21.6886 0 22.1111 0V1.25994V9.16202V17.0641V18.324C21.6886 18.324 21.2677 18.2948 20.8511 18.237C20.0812 18.1301 19.3262 17.9254 18.6049 17.6266C17.4933 17.1662 16.4833 16.4913 15.6325 15.6405C14.7818 14.7898 14.1069 13.7798 13.6465 12.6682C13.186 11.5566 12.949 10.3652 12.949 9.16202C12.949 7.95885 13.186 6.76745 13.6465 5.65587C14.1069 4.54428 14.7818 3.53427 15.6325 2.68349C16.4833 1.83272 17.4933 1.15785 18.6049 0.697416ZM41.6382 18.3527C41.8734 18.9206 42.041 19.5127 42.1386 20.1167H34.3376L26.5366 20.1167C26.6342 19.5127 26.8018 18.9206 27.0371 18.3527C27.4342 17.394 28.0162 16.5228 28.75 15.7891C29.4838 15.0553 30.3549 14.4732 31.3136 14.0761C32.2723 13.679 33.2999 13.4746 34.3376 13.4746C35.3753 13.4746 36.4029 13.679 37.3616 14.0761C38.3203 14.4732 39.1915 15.0553 39.9252 15.7891C40.659 16.5228 41.2411 17.394 41.6382 18.3527ZM42.8022 17.8705C43.101 18.5919 43.3057 19.3468 43.4126 20.1167C43.4704 20.5333 43.4996 20.9543 43.4996 21.3767H42.2397H34.3376H26.4355H25.1756C25.1756 20.9543 25.2048 20.5333 25.2626 20.1167C25.3695 19.3468 25.5742 18.5919 25.873 17.8705C26.3335 16.7589 27.0083 15.7489 27.8591 14.8982C28.7099 14.0474 29.7199 13.3725 30.8315 12.9121C31.9431 12.4516 33.1344 12.2147 34.3376 12.2147C35.5408 12.2147 36.7322 12.4516 37.8438 12.9121C38.9554 13.3725 39.9654 14.0474 40.8161 14.8982C41.6669 15.7489 42.3418 16.7589 42.8022 17.8705ZM22.6173 40.6464C23.2213 40.5489 23.8134 40.3812 24.3813 40.146C25.34 39.7489 26.2112 39.1668 26.9449 38.433C27.6787 37.6993 28.2608 36.8281 28.6579 35.8694C29.055 34.9107 29.2594 33.8831 29.2594 32.8454C29.2594 31.8077 29.055 30.7802 28.6579 29.8214C28.2608 28.8627 27.6787 27.9916 26.9449 27.2578C26.2112 26.524 25.34 25.942 24.3813 25.5449C23.8134 25.3096 23.2213 25.142 22.6173 25.0444L22.6173 32.8454V40.6464ZM22.6173 41.9204C23.3872 41.8135 24.1422 41.6088 24.8635 41.31C25.9751 40.8496 26.9851 40.1747 27.8359 39.324C28.6866 38.4732 29.3615 37.4632 29.8219 36.3516C30.2824 35.24 30.5193 34.0486 30.5193 32.8454C30.5193 31.6423 30.2824 30.4509 29.8219 29.3393C29.3615 28.2277 28.6866 27.2177 27.8359 26.3669C26.9851 25.5161 25.9751 24.8413 24.8635 24.3808C24.1422 24.082 23.3872 23.8774 22.6173 23.7705C22.2007 23.7126 21.7797 23.6834 21.3573 23.6834V24.9434V32.8454V40.7475V42.0074C21.7797 42.0074 22.2007 41.9782 22.6173 41.9204ZM2.59583 23.6469C2.36058 23.079 2.19297 22.4869 2.09541 21.8829H9.89639L17.6974 21.8829C17.5998 22.4869 17.4322 23.079 17.197 23.6469C16.7998 24.6057 16.2178 25.4768 15.484 26.2106C14.7502 26.9443 13.8791 27.5264 12.9204 27.9235C11.9617 28.3206 10.9341 28.525 9.89639 28.525C8.85868 28.525 7.83112 28.3206 6.8724 27.9235C5.91368 27.5264 5.04256 26.9443 4.30878 26.2106C3.57501 25.4768 2.99294 24.6057 2.59583 23.6469ZM1.43179 24.1291C1.13301 23.4078 0.928318 22.6528 0.821421 21.8829C0.763586 21.4663 0.734375 21.0454 0.734375 20.623H1.99432H9.89639H17.7985H19.0584C19.0584 21.0454 19.0292 21.4663 18.9714 21.8829C18.8645 22.6528 18.6598 23.4078 18.361 24.1291C17.9006 25.2407 17.2257 26.2507 16.3749 27.1015C15.5241 27.9523 14.5141 28.6271 13.4025 29.0876C12.291 29.548 11.0996 29.785 9.89639 29.785C8.69322 29.785 7.50183 29.548 6.39024 29.0876C5.27865 28.6271 4.26864 27.9523 3.41787 27.1015C2.5671 26.2507 1.89223 25.2407 1.43179 24.1291Z" fill="white"/>
</svg>
